<?xml version="1.0" encoding="UTF-8" standalone="no"?>
<!DOCTYPE svg PUBLIC "-//W3C//DTD SVG 1.1//EN" "http://www.w3.org/Graphics/SVG/1.1/DTD/svg11.dtd">
<!-- Generated by graphviz version 2.40.1 (20161225.0304)
 -->
<!-- Title: SEM Pages: 1 -->
<svg xmlns="http://www.w3.org/2000/svg" xmlns:xlink="http://www.w3.org/1999/xlink" width="533pt" height="269pt" viewBox="0.00 0.00 532.65 269.25">
  <g id="graph0" class="graph" transform="scale(1 1) rotate(0) translate(4 265.2548)">
    <title>SEM</title>
    <polygon fill="#ffffff" stroke="transparent" points="-4,4 -4,-265.2548 528.65,-265.2548 528.65,4 -4,4"/>
    <!-- c&#45;&gt;d -->
    <g id="edge1" class="edge">
      <title>c:s-&gt;d:s</title>
      <path fill="none" stroke="#000000" d="M348.5621,-102.6274C375.1312,-102.6274 445.478,-102.6274 471.9437,-102.6274"/>
      <polygon fill="#000000" stroke="#000000" points="348.206,-99.1275 338.206,-102.6274 348.206,-106.1275 348.206,-99.1275"/>
      <polygon fill="#000000" stroke="#000000" points="472.206,-106.1275 482.206,-102.6274 472.206,-99.1275 472.206,-106.1275"/>
    </g>
    <!-- f&#45;&gt;a -->
    <g id="edge2" class="edge">
      <title>f-&gt;a:s</title>
      <path fill="none" stroke="#000000" d="M215.017,-41.5863C163.1193,-60.8077 86.7543,-89.091 59.942,-99.0215"/>
      <polygon fill="#000000" stroke="#000000" points="58.3679,-95.8721 50.206,-102.6274 60.7991,-102.4363 58.3679,-95.8721"/>
    </g>
    <!-- f&#45;&gt;b -->
    <g id="edge3" class="edge">
      <title>f-&gt;b:s</title>
      <path fill="none" stroke="#000000" d="M246.15,-44.9119C231.004,-61.7407 211.1396,-83.8123 200.921,-95.1663"/>
      <polygon fill="#000000" stroke="#000000" points="198.2941,-92.8531 194.206,-102.6274 203.4972,-97.5358 198.2941,-92.8531"/>
    </g>
    <!-- f&#45;&gt;c -->
    <g id="edge4" class="edge">
      <title>f-&gt;c:s</title>
      <path fill="none" stroke="#000000" d="M286.262,-44.9119C301.408,-61.7407 321.2724,-83.8123 331.491,-95.1663"/>
      <polygon fill="#000000" stroke="#000000" points="328.9148,-97.5358 338.206,-102.6274 334.1179,-92.8531 328.9148,-97.5358"/>
    </g>
    <!-- f&#45;&gt;d -->
    <g id="edge5" class="edge">
      <title>f-&gt;d:s</title>
      <path fill="none" stroke="#000000" d="M317.395,-41.5863C369.2927,-60.8077 445.6577,-89.091 472.47,-99.0215"/>
      <polygon fill="#000000" stroke="#000000" points="471.6129,-102.4363 482.206,-102.6274 474.0441,-95.8721 471.6129,-102.4363"/>
    </g>
    <!-- h&#45;&gt;a -->
    <g id="edge6" class="edge">
      <title>h-&gt;a:n</title>
      <path fill="none" stroke="#000000" d="M241.4281,-229.4504C193.7785,-211.8024 91.2892,-173.8434 59.6828,-162.1374"/>
      <polygon fill="#000000" stroke="#000000" points="60.7991,-158.8185 50.206,-158.6274 58.3679,-165.3827 60.7991,-158.8185"/>
    </g>
    <!-- h&#45;&gt;b -->
    <g id="edge7" class="edge">
      <title>h-&gt;b:n</title>
      <path fill="none" stroke="#000000" d="M249.8681,-220.4742C234.4337,-203.3249 212.0438,-178.4472 200.9533,-166.1244"/>
      <polygon fill="#000000" stroke="#000000" points="203.4972,-163.719 194.206,-158.6274 198.2941,-168.4018 203.4972,-163.719"/>
    </g>
    <!-- h&#45;&gt;c -->
    <g id="edge8" class="edge">
      <title>h-&gt;c:n</title>
      <path fill="none" stroke="#000000" d="M282.5439,-220.4742C297.9783,-203.3249 320.3682,-178.4472 331.4587,-166.1244"/>
      <polygon fill="#000000" stroke="#000000" points="334.1179,-168.4018 338.206,-158.6274 328.9148,-163.719 334.1179,-168.4018"/>
    </g>
    <!-- h&#45;&gt;d -->
    <g id="edge9" class="edge">
      <title>h-&gt;d:n</title>
      <path fill="none" stroke="#000000" d="M290.9839,-229.4504C338.6335,-211.8024 441.1228,-173.8434 472.7292,-162.1374"/>
      <polygon fill="#000000" stroke="#000000" points="474.0441,-165.3827 482.206,-158.6274 471.6129,-158.8185 474.0441,-165.3827"/>
    </g>
    <!-- a -->
    <g id="node1" class="node">
      <title>a</title>
      <polygon fill="none" stroke="#000000" points="100.6188,-158.6274 -.2068,-158.6274 -.2068,-102.6274 100.6188,-102.6274 100.6188,-158.6274"/>
      <text text-anchor="middle" x="50.206" y="-136.6274" font-family="Times,serif" font-size="20.00" fill="#000000">(non)word</text>
      <text text-anchor="middle" x="50.206" y="-112.6274" font-family="Times,serif" font-size="20.00" fill="#000000">acc</text>
    </g>
    <!-- b -->
    <g id="node2" class="node">
      <title>b</title>
      <polygon fill="none" stroke="#000000" points="233.3962,-158.6274 155.0158,-158.6274 155.0158,-102.6274 233.3962,-102.6274 233.3962,-158.6274"/>
      <text text-anchor="middle" x="194.206" y="-136.6274" font-family="Times,serif" font-size="20.00" fill="#000000">passage</text>
      <text text-anchor="middle" x="194.206" y="-112.6274" font-family="Times,serif" font-size="20.00" fill="#000000">acc</text>
    </g>
    <!-- c -->
    <g id="node3" class="node">
      <title>c</title>
      <polygon fill="none" stroke="#000000" points="376.178,-158.6274 300.234,-158.6274 300.234,-102.6274 376.178,-102.6274 376.178,-158.6274"/>
      <text text-anchor="middle" x="338.206" y="-136.6274" font-family="Times,serif" font-size="20.00" fill="#000000">reading</text>
      <text text-anchor="middle" x="338.206" y="-112.6274" font-family="Times,serif" font-size="20.00" fill="#000000">comp</text>
    </g>
    <!-- d -->
    <g id="node4" class="node">
      <title>d</title>
      <polygon fill="none" stroke="#000000" points="524.5941,-158.6274 439.8179,-158.6274 439.8179,-102.6274 524.5941,-102.6274 524.5941,-158.6274"/>
      <text text-anchor="middle" x="482.206" y="-136.6274" font-family="Times,serif" font-size="20.00" fill="#000000">listening</text>
      <text text-anchor="middle" x="482.206" y="-112.6274" font-family="Times,serif" font-size="20.00" fill="#000000">comp</text>
    </g>
    <!-- f -->
    <g id="node5" class="node">
      <title>f</title>
      <ellipse fill="none" stroke="#000000" cx="266.206" cy="-22.6274" rx="92.7055" ry="22.7556"/>
      <text text-anchor="middle" x="266.206" y="-16.6274" font-family="Times,serif" font-size="20.00" fill="#000000">general ability</text>
    </g>
    <!-- h -->
    <g id="node6" class="node">
      <title>h</title>
      <ellipse fill="none" stroke="#000000" cx="266.206" cy="-238.6274" rx="27" ry="22.7556"/>
      <text text-anchor="middle" x="266.206" y="-232.6274" font-family="Times,serif" font-size="20.00" fill="#000000">C</text>
    </g>
  </g>
</svg>
