<?xml version="1.0" encoding="UTF-8" standalone="no"?>
<!DOCTYPE svg PUBLIC "-//W3C//DTD SVG 1.1//EN" "http://www.w3.org/Graphics/SVG/1.1/DTD/svg11.dtd">
<!-- Generated by graphviz version 2.40.1 (20161225.0304)
 -->
<!-- Title: SEM Pages: 1 -->
<svg xmlns="http://www.w3.org/2000/svg" xmlns:xlink="http://www.w3.org/1999/xlink" width="533pt" height="167pt" viewBox="0.00 0.00 532.65 166.63">
  <g id="graph0" class="graph" transform="scale(1 1) rotate(0) translate(4 162.6274)">
    <title>SEM</title>
    <polygon fill="#ffffff" stroke="transparent" points="-4,4 -4,-162.6274 528.65,-162.6274 528.65,4 -4,4"/>
    <!-- a&#45;&gt;b -->
    <g id="edge5" class="edge">
      <title>a:s-&gt;b:s</title>
      <path fill="none" stroke="#000000" d="M60.5621,0C87.1312,0 157.478,0 183.9437,0"/>
      <polygon fill="#000000" stroke="#000000" points="60.206,3.4999 50.206,0 60.206,-3.5001 60.206,3.4999"/>
      <polygon fill="#000000" stroke="#000000" points="184.206,-3.5001 194.206,0 184.206,3.4999 184.206,-3.5001"/>
    </g>
    <!-- a&#45;&gt;c -->
    <g id="edge6" class="edge">
      <title>a:s-&gt;c:s</title>
      <path fill="none" stroke="#000000" d="M60.4561,0C105.247,0 283.5328,0 328.0787,0"/>
      <polygon fill="#000000" stroke="#000000" points="60.206,3.4999 50.206,0 60.206,-3.5001 60.206,3.4999"/>
      <polygon fill="#000000" stroke="#000000" points="328.206,-3.5001 338.206,0 328.206,3.4999 328.206,-3.5001"/>
    </g>
    <!-- a&#45;&gt;d -->
    <g id="edge7" class="edge">
      <title>a:s-&gt;d:s</title>
      <path fill="none" stroke="#000000" d="M60.4586,0C119.234,0 412.8276,0 471.8576,0"/>
      <polygon fill="#000000" stroke="#000000" points="60.206,3.4999 50.206,0 60.206,-3.5001 60.206,3.4999"/>
      <polygon fill="#000000" stroke="#000000" points="472.206,-3.5001 482.206,0 472.206,3.4999 472.206,-3.5001"/>
    </g>
    <!-- b&#45;&gt;c -->
    <g id="edge8" class="edge">
      <title>b:s-&gt;c:s</title>
      <path fill="none" stroke="#000000" d="M204.5621,0C231.1312,0 301.478,0 327.9437,0"/>
      <polygon fill="#000000" stroke="#000000" points="204.206,3.4999 194.206,0 204.206,-3.5001 204.206,3.4999"/>
      <polygon fill="#000000" stroke="#000000" points="328.206,-3.5001 338.206,0 328.206,3.4999 328.206,-3.5001"/>
    </g>
    <!-- b&#45;&gt;d -->
    <g id="edge9" class="edge">
      <title>b:s-&gt;d:s</title>
      <path fill="none" stroke="#000000" d="M204.4561,0C249.247,0 427.5328,0 472.0787,0"/>
      <polygon fill="#000000" stroke="#000000" points="204.206,3.4999 194.206,0 204.206,-3.5001 204.206,3.4999"/>
      <polygon fill="#000000" stroke="#000000" points="472.206,-3.5001 482.206,0 472.206,3.4999 472.206,-3.5001"/>
    </g>
    <!-- c&#45;&gt;d -->
    <g id="edge10" class="edge">
      <title>c:s-&gt;d:s</title>
      <path fill="none" stroke="#000000" d="M348.5621,0C375.1312,0 445.478,0 471.9437,0"/>
      <polygon fill="#000000" stroke="#000000" points="348.206,3.4999 338.206,0 348.206,-3.5001 348.206,3.4999"/>
      <polygon fill="#000000" stroke="#000000" points="472.206,-3.5001 482.206,0 472.206,3.4999 472.206,-3.5001"/>
    </g>
    <!-- h&#45;&gt;a -->
    <g id="edge1" class="edge">
      <title>h-&gt;a:n</title>
      <path fill="none" stroke="#000000" d="M241.4281,-126.823C193.7785,-109.175 91.2892,-71.216 59.6828,-59.5099"/>
      <polygon fill="#000000" stroke="#000000" points="60.7991,-56.1911 50.206,-56 58.3679,-62.7553 60.7991,-56.1911"/>
    </g>
    <!-- h&#45;&gt;b -->
    <g id="edge2" class="edge">
      <title>h-&gt;b:n</title>
      <path fill="none" stroke="#000000" d="M249.8681,-117.8468C234.4337,-100.6975 212.0438,-75.8198 200.9533,-63.497"/>
      <polygon fill="#000000" stroke="#000000" points="203.4972,-61.0916 194.206,-56 198.2941,-65.7744 203.4972,-61.0916"/>
    </g>
    <!-- h&#45;&gt;c -->
    <g id="edge3" class="edge">
      <title>h-&gt;c:n</title>
      <path fill="none" stroke="#000000" d="M282.5439,-117.8468C297.9783,-100.6975 320.3682,-75.8198 331.4587,-63.497"/>
      <polygon fill="#000000" stroke="#000000" points="334.1179,-65.7744 338.206,-56 328.9148,-61.0916 334.1179,-65.7744"/>
    </g>
    <!-- h&#45;&gt;d -->
    <g id="edge4" class="edge">
      <title>h-&gt;d:n</title>
      <path fill="none" stroke="#000000" d="M290.9839,-126.823C338.6335,-109.175 441.1228,-71.216 472.7292,-59.5099"/>
      <polygon fill="#000000" stroke="#000000" points="474.0441,-62.7553 482.206,-56 471.6129,-56.1911 474.0441,-62.7553"/>
    </g>
    <!-- a -->
    <g id="node1" class="node">
      <title>a</title>
      <polygon fill="none" stroke="#000000" points="100.6188,-56 -.2068,-56 -.2068,0 100.6188,0 100.6188,-56"/>
      <text text-anchor="middle" x="50.206" y="-34" font-family="Times,serif" font-size="20.00" fill="#000000">(non)word</text>
      <text text-anchor="middle" x="50.206" y="-10" font-family="Times,serif" font-size="20.00" fill="#000000">acc</text>
    </g>
    <!-- b -->
    <g id="node2" class="node">
      <title>b</title>
      <polygon fill="none" stroke="#000000" points="233.3962,-56 155.0158,-56 155.0158,0 233.3962,0 233.3962,-56"/>
      <text text-anchor="middle" x="194.206" y="-34" font-family="Times,serif" font-size="20.00" fill="#000000">passage</text>
      <text text-anchor="middle" x="194.206" y="-10" font-family="Times,serif" font-size="20.00" fill="#000000">acc</text>
    </g>
    <!-- c -->
    <g id="node3" class="node">
      <title>c</title>
      <polygon fill="none" stroke="#000000" points="376.178,-56 300.234,-56 300.234,0 376.178,0 376.178,-56"/>
      <text text-anchor="middle" x="338.206" y="-34" font-family="Times,serif" font-size="20.00" fill="#000000">reading</text>
      <text text-anchor="middle" x="338.206" y="-10" font-family="Times,serif" font-size="20.00" fill="#000000">comp</text>
    </g>
    <!-- d -->
    <g id="node4" class="node">
      <title>d</title>
      <polygon fill="none" stroke="#000000" points="524.5941,-56 439.8179,-56 439.8179,0 524.5941,0 524.5941,-56"/>
      <text text-anchor="middle" x="482.206" y="-34" font-family="Times,serif" font-size="20.00" fill="#000000">listening</text>
      <text text-anchor="middle" x="482.206" y="-10" font-family="Times,serif" font-size="20.00" fill="#000000">comp</text>
    </g>
    <!-- h -->
    <g id="node5" class="node">
      <title>h</title>
      <ellipse fill="none" stroke="#000000" cx="266.206" cy="-136" rx="27" ry="22.7556"/>
      <text text-anchor="middle" x="266.206" y="-130" font-family="Times,serif" font-size="20.00" fill="#000000">C</text>
    </g>
  </g>
</svg>
