<?xml version="1.0" encoding="UTF-8" standalone="no"?>
<!DOCTYPE svg PUBLIC "-//W3C//DTD SVG 1.1//EN" "http://www.w3.org/Graphics/SVG/1.1/DTD/svg11.dtd">
<!-- Generated by graphviz version 2.40.1 (20161225.0304)
 -->
<!-- Title: SEM Pages: 1 -->
<svg xmlns="http://www.w3.org/2000/svg" xmlns:xlink="http://www.w3.org/1999/xlink" width="533pt" height="265pt" viewBox="0.00 0.00 532.65 264.63">
  <g id="graph0" class="graph" transform="scale(1 1) rotate(0) translate(4 260.6274)">
    <title>SEM</title>
    <polygon fill="#ffffff" stroke="transparent" points="-4,4 -4,-260.6274 528.65,-260.6274 528.65,4 -4,4"/>
    <!-- f&#45;&gt;a -->
    <g id="edge1" class="edge">
      <title>f-&gt;a:s</title>
      <path fill="none" stroke="#000000" d="M217.4621,-36.0533C165.4513,-55.3166 86.885,-84.4152 59.7895,-94.4505"/>
      <polygon fill="#000000" stroke="#000000" points="58.3679,-91.2447 50.206,-98 60.7991,-97.8089 58.3679,-91.2447"/>
    </g>
    <!-- f&#45;&gt;b -->
    <g id="edge2" class="edge">
      <title>f-&gt;b:s</title>
      <path fill="none" stroke="#000000" d="M249.8681,-36.1532C234.4337,-53.3025 212.0438,-78.1802 200.9533,-90.503"/>
      <polygon fill="#000000" stroke="#000000" points="198.2941,-88.2256 194.206,-98 203.4972,-92.9084 198.2941,-88.2256"/>
    </g>
    <!-- f&#45;&gt;c -->
    <g id="edge3" class="edge">
      <title>f-&gt;c:s</title>
      <path fill="none" stroke="#000000" d="M282.5439,-36.1532C297.9783,-53.3025 320.3682,-78.1802 331.4587,-90.503"/>
      <polygon fill="#000000" stroke="#000000" points="328.9148,-92.9084 338.206,-98 334.1179,-88.2256 328.9148,-92.9084"/>
    </g>
    <!-- f&#45;&gt;d -->
    <g id="edge4" class="edge">
      <title>f-&gt;d:s</title>
      <path fill="none" stroke="#000000" d="M314.9499,-36.0533C366.9607,-55.3166 445.527,-84.4152 472.6225,-94.4505"/>
      <polygon fill="#000000" stroke="#000000" points="471.6129,-97.8089 482.206,-98 474.0441,-91.2447 471.6129,-97.8089"/>
    </g>
    <!-- h&#45;&gt;a -->
    <g id="edge5" class="edge">
      <title>h-&gt;a:n</title>
      <path fill="none" stroke="#000000" d="M241.4281,-224.823C193.7785,-207.175 91.2892,-169.216 59.6828,-157.5099"/>
      <polygon fill="#000000" stroke="#000000" points="60.7991,-154.1911 50.206,-154 58.3679,-160.7553 60.7991,-154.1911"/>
    </g>
    <!-- h&#45;&gt;b -->
    <g id="edge6" class="edge">
      <title>h-&gt;b:n</title>
      <path fill="none" stroke="#000000" d="M249.8681,-215.8468C234.4337,-198.6975 212.0438,-173.8198 200.9533,-161.497"/>
      <polygon fill="#000000" stroke="#000000" points="203.4972,-159.0916 194.206,-154 198.2941,-163.7744 203.4972,-159.0916"/>
    </g>
    <!-- h&#45;&gt;c -->
    <g id="edge7" class="edge">
      <title>h-&gt;c:n</title>
      <path fill="none" stroke="#000000" d="M282.5439,-215.8468C297.9783,-198.6975 320.3682,-173.8198 331.4587,-161.497"/>
      <polygon fill="#000000" stroke="#000000" points="334.1179,-163.7744 338.206,-154 328.9148,-159.0916 334.1179,-163.7744"/>
    </g>
    <!-- h&#45;&gt;d -->
    <g id="edge8" class="edge">
      <title>h-&gt;d:n</title>
      <path fill="none" stroke="#000000" d="M290.9839,-224.823C338.6335,-207.175 441.1228,-169.216 472.7292,-157.5099"/>
      <polygon fill="#000000" stroke="#000000" points="474.0441,-160.7553 482.206,-154 471.6129,-154.1911 474.0441,-160.7553"/>
    </g>
    <!-- a -->
    <g id="node1" class="node">
      <title>a</title>
      <polygon fill="none" stroke="#000000" points="100.6188,-154 -.2068,-154 -.2068,-98 100.6188,-98 100.6188,-154"/>
      <text text-anchor="middle" x="50.206" y="-132" font-family="Times,serif" font-size="20.00" fill="#000000">(non)word</text>
      <text text-anchor="middle" x="50.206" y="-108" font-family="Times,serif" font-size="20.00" fill="#000000">acc</text>
    </g>
    <!-- b -->
    <g id="node2" class="node">
      <title>b</title>
      <polygon fill="none" stroke="#000000" points="233.3962,-154 155.0158,-154 155.0158,-98 233.3962,-98 233.3962,-154"/>
      <text text-anchor="middle" x="194.206" y="-132" font-family="Times,serif" font-size="20.00" fill="#000000">passage</text>
      <text text-anchor="middle" x="194.206" y="-108" font-family="Times,serif" font-size="20.00" fill="#000000">acc</text>
    </g>
    <!-- c -->
    <g id="node3" class="node">
      <title>c</title>
      <polygon fill="none" stroke="#000000" points="376.178,-154 300.234,-154 300.234,-98 376.178,-98 376.178,-154"/>
      <text text-anchor="middle" x="338.206" y="-132" font-family="Times,serif" font-size="20.00" fill="#000000">reading</text>
      <text text-anchor="middle" x="338.206" y="-108" font-family="Times,serif" font-size="20.00" fill="#000000">comp</text>
    </g>
    <!-- d -->
    <g id="node4" class="node">
      <title>d</title>
      <polygon fill="none" stroke="#000000" points="524.5941,-154 439.8179,-154 439.8179,-98 524.5941,-98 524.5941,-154"/>
      <text text-anchor="middle" x="482.206" y="-132" font-family="Times,serif" font-size="20.00" fill="#000000">listening</text>
      <text text-anchor="middle" x="482.206" y="-108" font-family="Times,serif" font-size="20.00" fill="#000000">comp</text>
    </g>
    <!-- f -->
    <g id="node5" class="node">
      <title>f</title>
      <polygon fill="none" stroke="#000000" points="331.666,-36 200.746,-36 200.746,0 331.666,0 331.666,-36"/>
      <text text-anchor="middle" x="266.206" y="-12" font-family="Times,serif" font-size="20.00" fill="#000000">general ability</text>
    </g>
    <!-- h -->
    <g id="node6" class="node">
      <title>h</title>
      <ellipse fill="none" stroke="#000000" cx="266.206" cy="-234" rx="27" ry="22.7556"/>
      <text text-anchor="middle" x="266.206" y="-228" font-family="Times,serif" font-size="20.00" fill="#000000">C</text>
    </g>
  </g>
</svg>
